<svg width="1306" height="250" viewBox="0 0 1306 250" fill="none" xmlns="http://www.w3.org/2000/svg">
<path d="M0 158.113L7.93887e-07 91.5393L199.722 91.5393L199.722 116.505L158.113 158.113L0 158.113Z" fill="url(#paint0_linear)"/>
<path d="M0 66.5742L7.93887e-07 0.000198364L249.653 0.000201341L249.653 66.5742L208.044 66.5742L0 66.5742Z" fill="url(#paint1_linear)"/>
<path d="M0 249.652L7.93887e-07 183.078L249.653 183.078L249.653 249.652L208.044 249.652L0 249.652Z" fill="url(#paint2_linear)"/>
<path d="M116.089 158.113L158.113 116.504V157.697L156.449 158.113H116.089Z" fill="black" fill-opacity="0.15"/>
<path d="M158.114 116.504H199.723L158.114 158.113V116.504Z" fill="white" fill-opacity="0.6"/>
<path d="M316.366 199.983V49.9307H410.149V64.6233H331.684V116.516H397.644V131.209H331.684V185.29H410.149V199.983H316.366Z" fill="#5E5E71"/>
<path d="M463.253 203.109C454.778 203.109 447.657 201.58 441.891 198.524C436.195 195.467 431.923 191.403 429.074 186.332C426.226 181.261 424.802 175.738 424.802 169.764C424.802 163.651 426.018 158.441 428.449 154.133C430.95 149.757 434.319 146.179 438.557 143.401C442.864 140.622 447.831 138.503 453.458 137.044C459.154 135.655 465.441 134.439 472.319 133.397C479.265 132.286 486.039 131.348 492.638 130.584C499.307 129.75 505.142 128.951 510.144 128.187L504.726 131.521C504.934 120.406 502.78 112.174 498.265 106.825C493.75 101.476 485.9 98.8018 474.715 98.8018C467.004 98.8018 460.474 100.538 455.125 104.012C449.845 107.485 446.129 112.973 443.975 120.476L429.074 116.099C431.645 106.027 436.82 98.2113 444.601 92.6538C452.381 87.0963 462.489 84.3176 474.924 84.3176C485.205 84.3176 493.923 86.2627 501.078 90.153C508.303 93.9737 513.409 99.5312 516.396 106.825C517.786 110.09 518.689 113.738 519.106 117.767C519.522 121.796 519.731 125.895 519.731 130.063V199.983H506.08V171.744L510.04 173.411C506.219 183.067 500.28 190.431 492.221 195.502C484.163 200.573 474.507 203.109 463.253 203.109ZM465.024 189.875C472.18 189.875 478.432 188.59 483.781 186.02C489.13 183.449 493.437 179.941 496.702 175.495C499.967 170.98 502.086 165.908 503.058 160.281C503.892 156.669 504.343 152.709 504.413 148.402C504.482 144.026 504.517 140.761 504.517 138.607L510.353 141.629C505.142 142.324 499.481 143.019 493.367 143.713C487.324 144.408 481.349 145.207 475.445 146.11C469.609 147.013 464.33 148.09 459.606 149.34C456.41 150.243 453.319 151.528 450.332 153.196C447.345 154.793 444.878 156.947 442.933 159.656C441.058 162.365 440.12 165.735 440.12 169.764C440.12 173.029 440.919 176.19 442.516 179.246C444.184 182.303 446.824 184.839 450.436 186.853C454.118 188.868 458.981 189.875 465.024 189.875Z" fill="#5E5E71"/>
<path d="M584.683 203.005C571.484 203.005 560.612 200.156 552.068 194.46C543.593 188.764 538.383 180.844 536.437 170.702L552.068 168.097C553.735 174.488 557.521 179.594 563.426 183.414C569.4 187.166 576.764 189.041 585.517 189.041C594.062 189.041 600.8 187.27 605.732 183.727C610.665 180.115 613.131 175.217 613.131 169.034C613.131 165.561 612.332 162.748 610.734 160.594C609.206 158.371 606.045 156.322 601.252 154.446C596.458 152.57 589.303 150.347 579.786 147.777C569.574 144.998 561.585 142.22 555.819 139.441C550.053 136.662 545.955 133.467 543.523 129.854C541.092 126.172 539.876 121.692 539.876 116.412C539.876 110.021 541.682 104.429 545.295 99.6354C548.907 94.7726 553.909 91.0213 560.3 88.3815C566.691 85.6722 574.124 84.3176 582.599 84.3176C591.074 84.3176 598.647 85.707 605.315 88.4857C612.054 91.195 617.472 95.0157 621.571 99.948C625.67 104.88 628.101 110.611 628.865 117.141L613.235 119.955C612.193 113.355 608.893 108.145 603.336 104.325C597.848 100.434 590.866 98.4197 582.391 98.2808C574.402 98.0724 567.907 99.6007 562.905 102.866C557.903 106.061 555.402 110.334 555.402 115.683C555.402 118.67 556.305 121.24 558.112 123.394C559.918 125.478 563.183 127.458 567.907 129.333C572.7 131.209 579.508 133.258 588.33 135.481C598.681 138.121 606.809 140.9 612.714 143.817C618.619 146.735 622.822 150.174 625.322 154.133C627.823 158.093 629.074 162.991 629.074 168.826C629.074 179.455 625.114 187.826 617.195 193.939C609.345 199.983 598.508 203.005 584.683 203.005Z" fill="#5E5E71"/>
<path d="M659.993 250L681.771 190.917L682.084 208.423L632.796 87.4437H649.051L689.482 188.625H682.813L720.118 87.4437H735.748L675.31 250H659.993Z" fill="#5E5E71"/>
<path d="M772.035 199.983V49.9307H835.391C836.85 49.9307 838.795 50.0001 841.226 50.1391C843.727 50.2085 845.95 50.4169 847.895 50.7643C856.856 52.1537 864.185 55.1061 869.882 59.6215C875.648 64.137 879.885 69.8334 882.595 76.7108C885.304 83.5187 886.658 91.1255 886.658 99.5312C886.658 112.105 883.532 122.873 877.28 131.834C871.028 140.726 861.233 146.214 847.895 148.298L835.391 149.132H800.379V199.983H772.035ZM856.648 199.983L827.055 138.92L856.231 133.293L888.743 199.983H856.648ZM800.379 122.664H834.14C835.599 122.664 837.197 122.595 838.934 122.456C840.67 122.317 842.268 122.039 843.727 121.622C847.548 120.58 850.5 118.843 852.584 116.412C854.668 113.911 856.092 111.167 856.856 108.18C857.69 105.123 858.107 102.24 858.107 99.5312C858.107 96.8219 857.69 93.9737 856.856 90.9866C856.092 87.93 854.668 85.1859 852.584 82.7546C850.5 80.2537 847.548 78.4822 843.727 77.4402C842.268 77.0234 840.67 76.7455 838.934 76.6066C837.197 76.4676 835.599 76.3982 834.14 76.3982H800.379V122.664Z" fill="#3E3E52"/>
<path d="M959.793 203.109C948.261 203.109 938.084 200.643 929.261 195.71C920.508 190.709 913.631 183.866 908.629 175.182C903.697 166.429 901.231 156.426 901.231 145.172C901.231 132.876 903.662 122.178 908.525 113.078C913.388 103.977 920.091 96.9261 928.636 91.9244C937.181 86.8532 947.01 84.3176 958.125 84.3176C969.935 84.3176 979.973 87.0963 988.24 92.6538C996.507 98.2113 1002.62 106.027 1006.58 116.099C1010.54 126.172 1011.93 138.017 1010.75 151.633H982.717V141.212C982.717 129.75 980.876 121.518 977.194 116.516C973.582 111.445 967.643 108.909 959.376 108.909C949.72 108.909 942.599 111.862 938.014 117.767C933.499 123.602 931.241 132.251 931.241 143.713C931.241 154.203 933.499 162.331 938.014 168.097C942.599 173.793 949.303 176.641 958.125 176.641C963.683 176.641 968.441 175.426 972.401 172.994C976.361 170.563 979.383 167.055 981.467 162.47L1009.81 170.598C1005.57 180.879 998.869 188.868 989.699 194.564C980.598 200.261 970.63 203.109 959.793 203.109ZM922.488 151.633V130.584H997.097V151.633H922.488Z" fill="#3E3E52"/>
<path d="M1097.63 199.983C1089.85 201.442 1082.21 202.067 1074.71 201.858C1067.27 201.719 1060.61 200.434 1054.7 198.003C1048.86 195.502 1044.42 191.508 1041.36 186.02C1038.58 180.879 1037.12 175.669 1036.99 170.389C1036.85 165.04 1036.78 158.996 1036.78 152.258V56.1828H1065.12V150.591C1065.12 154.967 1065.16 158.927 1065.22 162.47C1065.36 165.943 1066.09 168.722 1067.41 170.806C1069.91 174.766 1073.91 176.919 1079.4 177.266C1084.88 177.614 1090.96 177.336 1097.63 176.433V199.983ZM1017.6 109.326V87.4437H1097.63V109.326H1017.6Z" fill="#3E3E52"/>
<path d="M1118.54 199.983V87.4437H1143.55V114.953L1140.84 111.41C1142.3 107.52 1144.25 103.977 1146.68 100.782C1149.11 97.5861 1152.1 94.9463 1155.64 92.8622C1158.35 91.195 1161.3 89.9098 1164.5 89.0067C1167.69 88.0342 1170.99 87.4437 1174.4 87.2353C1177.8 86.9574 1181.2 87.0269 1184.61 87.4437V113.911C1181.48 112.939 1177.83 112.626 1173.67 112.973C1169.57 113.251 1165.85 114.189 1162.52 115.787C1159.18 117.315 1156.37 119.364 1154.08 121.935C1151.78 124.436 1150.05 127.423 1148.87 130.896C1147.68 134.3 1147.09 138.156 1147.09 142.463V199.983H1118.54Z" fill="#3E3E52"/>
<path d="M1248.87 203.109C1237.54 203.109 1227.61 200.573 1219.07 195.502C1210.52 190.431 1203.85 183.449 1199.06 174.557C1194.33 165.596 1191.97 155.314 1191.97 143.713C1191.97 131.973 1194.4 121.657 1199.27 112.765C1204.13 103.804 1210.83 96.8219 1219.38 91.8202C1227.92 86.8185 1237.75 84.3176 1248.87 84.3176C1260.19 84.3176 1270.12 86.8532 1278.67 91.9244C1287.28 96.9956 1293.99 104.012 1298.78 112.973C1303.57 121.865 1305.97 132.112 1305.97 143.713C1305.97 155.384 1303.54 165.7 1298.68 174.661C1293.88 183.553 1287.18 190.535 1278.57 195.606C1270.02 200.608 1260.12 203.109 1248.87 203.109ZM1248.87 176.641C1257.97 176.641 1264.74 173.585 1269.19 167.471C1273.7 161.289 1275.96 153.369 1275.96 143.713C1275.96 133.71 1273.67 125.721 1269.08 119.747C1264.57 113.772 1257.83 110.785 1248.87 110.785C1242.68 110.785 1237.61 112.174 1233.65 114.953C1229.69 117.732 1226.74 121.587 1224.8 126.52C1222.92 131.452 1221.98 137.183 1221.98 143.713C1221.98 153.786 1224.24 161.81 1228.76 167.784C1233.34 173.689 1240.04 176.641 1248.87 176.641Z" fill="#3E3E52"/>
<defs>
<linearGradient id="paint0_linear" x1="-40.7766" y1="124.826" x2="199.722" y2="124.826" gradientUnits="userSpaceOnUse">
<stop stop-color="#0A52E5"/>
<stop offset="1" stop-color="#2E70F9"/>
</linearGradient>
<linearGradient id="paint1_linear" x1="-50.9707" y1="33.2872" x2="249.653" y2="33.2872" gradientUnits="userSpaceOnUse">
<stop stop-color="#0A52E5"/>
<stop offset="1" stop-color="#2E70F9"/>
</linearGradient>
<linearGradient id="paint2_linear" x1="-50.9707" y1="216.365" x2="249.653" y2="216.365" gradientUnits="userSpaceOnUse">
<stop stop-color="#0A52E5"/>
<stop offset="1" stop-color="#2E70F9"/>
</linearGradient>
</defs>
</svg>
